<?xml version="1.0" standalone="no"?>
<!DOCTYPE svg PUBLIC "-//W3C//DTD SVG 20010904//EN"
 "http://www.w3.org/TR/2001/REC-SVG-20010904/DTD/svg10.dtd">
<svg version="1.0" xmlns="http://www.w3.org/2000/svg"
 width="678.000000pt" height="498.000000pt" viewBox="0 0 678.000000 498.000000"
 preserveAspectRatio="xMidYMid meet">

<g transform="translate(0.000000,498.000000) scale(0.100000,-0.100000)"
fill="#000000" stroke="none">
<path d="M0 2490 l0 -2490 3390 0 3390 0 0 2490 0 2490 -3390 0 -3390 0 0
-2490z m3531 1499 c674 -87 1194 -592 1304 -1267 27 -163 16 -426 -25 -584
-130 -506 -490 -900 -975 -1066 -174 -60 -279 -76 -490 -76 -159 0 -207 4
-295 23 -587 126 -1021 542 -1170 1119 -55 214 -53 505 5 732 134 526 552 944
1079 1081 176 46 394 61 567 38z"/>
<path d="M3139 3925 c-331 -54 -590 -185 -820 -414 -274 -275 -419 -626 -419
-1016 0 -530 276 -997 744 -1264 421 -239 981 -239 1402 0 356 203 609 532
703 914 31 126 41 214 41 352 -1 391 -147 745 -421 1015 -280 276 -599 413
-989 423 -105 3 -183 0 -241 -10z m342 -60 c291 -20 604 -165 829 -384 165
-162 287 -362 354 -582 43 -144 59 -251 59 -404 0 -153 -16 -260 -59 -404
-131 -430 -462 -766 -893 -905 -735 -238 -1522 171 -1745 905 -43 144 -59 251
-59 404 0 153 16 260 59 404 146 481 533 835 1034 945 80 18 256 35 305 30 17
-2 69 -6 116 -9z"/>
<path d="M2330 3036 c0 -8 9 -17 20 -21 11 -3 28 -17 38 -30 10 -13 112 -253
227 -535 l208 -511 56 3 55 3 176 475 c97 261 188 493 203 515 15 22 43 51 62
64 66 45 51 51 -125 51 -136 0 -160 -2 -160 -15 0 -8 8 -15 19 -15 38 0 82
-23 96 -51 20 -38 19 -121 -3 -194 -10 -33 -63 -179 -117 -324 -71 -191 -100
-259 -106 -245 -4 10 -71 180 -148 377 -78 196 -141 368 -141 381 0 31 20 47
70 53 24 4 40 11 40 19 0 12 -43 14 -235 14 -197 0 -235 -2 -235 -14z"/>
<path d="M3450 3037 c0 -9 15 -17 39 -21 73 -11 71 7 71 -519 0 -303 -4 -475
-10 -488 -6 -11 -30 -24 -55 -30 -25 -6 -45 -16 -45 -23 0 -8 75 -11 265 -11
247 -1 265 1 265 17 0 15 -9 18 -45 18 -51 0 -99 20 -111 47 -4 10 -9 95 -12
189 l-4 171 114 6 c62 3 136 13 163 20 178 50 277 167 277 331 0 131 -80 230
-222 278 -60 20 -89 22 -377 26 -268 3 -313 1 -313 -11z m537 -28 c78 -29 115
-114 116 -269 1 -226 -68 -320 -237 -320 l-56 0 0 248 c0 257 7 318 36 339 22
16 102 17 141 2z"/>
</g>
</svg>
